<svg width="32" height="32" viewBox="0 0 32 32" fill="none" xmlns="http://www.w3.org/2000/svg">
<g filter="url(#filter0_i_14396_1043)">
<path d="M15.9989 29.9997C25.3333 29.9997 29.9978 23.7322 29.9978 16.0008C29.9978 8.26947 25.3333 2.00195 15.9989 2.00195C6.66443 2.00195 2 8.26947 2 16.0008C2 23.7322 6.66443 29.9997 15.9989 29.9997Z" fill="url(#paint0_radial_14396_1043)"></path>
<path d="M15.9989 29.9997C25.3333 29.9997 29.9978 23.7322 29.9978 16.0008C29.9978 8.26947 25.3333 2.00195 15.9989 2.00195C6.66443 2.00195 2 8.26947 2 16.0008C2 23.7322 6.66443 29.9997 15.9989 29.9997Z" fill="url(#paint1_radial_14396_1043)"></path>
<path d="M15.9989 29.9997C25.3333 29.9997 29.9978 23.7322 29.9978 16.0008C29.9978 8.26947 25.3333 2.00195 15.9989 2.00195C6.66443 2.00195 2 8.26947 2 16.0008C2 23.7322 6.66443 29.9997 15.9989 29.9997Z" fill="url(#paint2_radial_14396_1043)"></path>
</g>
<path d="M16 2.75C15.4714 2.75 14.9596 2.77085 14.4646 2.8114C14.0518 2.84522 13.6897 2.53796 13.6559 2.12513C13.6221 1.7123 13.9293 1.35022 14.3421 1.31641C14.8793 1.2724 15.432 1.25 16 1.25C16.568 1.25 17.1207 1.2724 17.6579 1.31641C18.0707 1.35022 18.3779 1.7123 18.3441 2.12513C18.3103 2.53796 17.9482 2.84522 17.5354 2.8114C17.0404 2.77085 16.5286 2.75 16 2.75ZM21.0451 2.69373C21.1889 2.30527 21.6203 2.10692 22.0088 2.25069C23.1072 2.65723 24.1061 3.18012 25.0034 3.80511C25.3433 4.04186 25.4269 4.50932 25.1901 4.8492C24.9534 5.18909 24.4859 5.2727 24.146 5.03596C23.356 4.48566 22.4707 4.0211 21.4881 3.65743C21.0997 3.51366 20.9013 3.08219 21.0451 2.69373ZM10.9549 2.69373C11.0987 3.08219 10.9003 3.51366 10.5118 3.65743C9.52927 4.0211 8.644 4.48566 7.85397 5.03596C7.51409 5.2727 7.04663 5.18909 6.80988 4.8492C6.57314 4.50932 6.65675 4.04186 6.99663 3.80511C7.89391 3.18012 8.89277 2.65723 9.99119 2.25069C10.3797 2.10692 10.8111 2.30527 10.9549 2.69373ZM4.86707 6.80914C5.20842 7.04378 5.29492 7.51071 5.06027 7.85206C4.50041 8.66652 4.04084 9.56059 3.68307 10.5197C3.5383 10.9078 3.10633 11.1051 2.71824 10.9603C2.33015 10.8155 2.13289 10.3836 2.27766 9.99547C2.67583 8.92804 3.19082 7.92369 3.82416 7.00234C4.0588 6.661 4.52573 6.5745 4.86707 6.80914ZM27.1329 6.80914C27.4743 6.5745 27.9412 6.661 28.1758 7.00234C28.8092 7.92369 29.3242 8.92804 29.7223 9.99547C29.8671 10.3836 29.6699 10.8155 29.2818 10.9603C28.8937 11.1051 28.4617 10.9078 28.3169 10.5197C27.9592 9.56059 27.4996 8.66652 26.9397 7.85206C26.7051 7.51071 26.7916 7.04378 27.1329 6.80914ZM2.13299 13.657C2.54566 13.6928 2.85116 14.0564 2.81535 14.469C2.77183 14.9706 2.75 15.4814 2.75 16C2.75 16.5186 2.77183 17.0294 2.81535 17.531C2.85116 17.9436 2.54566 18.3072 2.13299 18.343C1.72033 18.3788 1.35677 18.0733 1.32097 17.6606C1.2736 17.1148 1.25 16.5606 1.25 16C1.25 15.4394 1.2736 14.8852 1.32097 14.3394C1.35677 13.9267 1.72033 13.6212 2.13299 13.657ZM29.867 13.657C30.2797 13.6212 30.6432 13.9267 30.679 14.3394C30.7264 14.8852 30.75 15.4394 30.75 16C30.75 16.5606 30.7264 17.1148 30.679 17.6606C30.6432 18.0733 30.2797 18.3788 29.867 18.343C29.4543 18.3072 29.1488 17.9436 29.1846 17.531C29.2282 17.0294 29.25 16.5186 29.25 16C29.25 15.4814 29.2282 14.9706 29.1846 14.469C29.1488 14.0564 29.4543 13.6928 29.867 13.657ZM29.2818 21.0397C29.6699 21.1845 29.8671 21.6164 29.7223 22.0045C29.3242 23.072 28.8092 24.0763 28.1758 24.9977C27.9412 25.339 27.4743 25.4255 27.1329 25.1909C26.7916 24.9562 26.7051 24.4893 26.9397 24.1479C27.4996 23.3335 27.9592 22.4394 28.3169 21.4803C28.4617 21.0922 28.8937 20.8949 29.2818 21.0397ZM2.71824 21.0397C3.10633 20.8949 3.5383 21.0922 3.68307 21.4803C4.04084 22.4394 4.50041 23.3335 5.06027 24.1479C5.29492 24.4893 5.20842 24.9562 4.86707 25.1909C4.52573 25.4255 4.0588 25.339 3.82416 24.9977C3.19082 24.0763 2.67583 23.072 2.27766 22.0045C2.13289 21.6164 2.33015 21.1845 2.71824 21.0397ZM6.80988 27.1508C7.04663 26.8109 7.51409 26.7273 7.85397 26.964C8.644 27.5143 9.52927 27.9789 10.5118 28.3426C10.9003 28.4863 11.0987 28.9178 10.9549 29.3063C10.8111 29.6947 10.3797 29.8931 9.99119 29.7493C8.89277 29.3428 7.89391 28.8199 6.99663 28.1949C6.65675 27.9581 6.57314 27.4907 6.80988 27.1508ZM25.1901 27.1508C25.4269 27.4907 25.3433 27.9581 25.0034 28.1949C24.1061 28.8199 23.1072 29.3428 22.0088 29.7493C21.6203 29.8931 21.1889 29.6947 21.0451 29.3063C20.9013 28.9178 21.0997 28.4863 21.4882 28.3426C22.4707 27.9789 23.356 27.5143 24.146 26.964C24.4859 26.7273 24.9534 26.8109 25.1901 27.1508ZM13.6559 29.8749C13.6897 29.462 14.0518 29.1548 14.4646 29.1886C14.9596 29.2292 15.4714 29.25 16 29.25C16.5286 29.25 17.0404 29.2292 17.5354 29.1886C17.9482 29.1548 18.3103 29.462 18.3441 29.8749C18.3779 30.2877 18.0707 30.6498 17.6579 30.6836C17.1207 30.7276 16.568 30.75 16 30.75C15.432 30.75 14.8793 30.7276 14.3421 30.6836C13.9293 30.6498 13.6221 30.2877 13.6559 29.8749Z" fill="#BC644F"></path>
<defs>
<filter id="filter0_i_14396_1043" x="2" y="2.00195" width="28.3978" height="27.9978" filterUnits="userSpaceOnUse" color-interpolation-filters="sRGB">
<feFlood flood-opacity="0" result="BackgroundImageFix"></feFlood>
<feBlend mode="normal" in="SourceGraphic" in2="BackgroundImageFix" result="shape"></feBlend>
<feColorMatrix in="SourceAlpha" type="matrix" values="0 0 0 0 0 0 0 0 0 0 0 0 0 0 0 0 0 0 127 0" result="hardAlpha"></feColorMatrix>
<feOffset dx="0.4"></feOffset>
<feGaussianBlur stdDeviation="0.4"></feGaussianBlur>
<feComposite in2="hardAlpha" operator="arithmetic" k2="-1" k3="1"></feComposite>
<feColorMatrix type="matrix" values="0 0 0 0 0.92549 0 0 0 0 0.635294 0 0 0 0 0.494118 0 0 0 1 0"></feColorMatrix>
<feBlend mode="normal" in2="shape" result="effect1_innerShadow_14396_1043"></feBlend>
</filter>
<radialGradient id="paint0_radial_14396_1043" cx="0" cy="0" r="1" gradientUnits="userSpaceOnUse" gradientTransform="translate(23.8125 7.07849) rotate(131.76) scale(28.1525)">
<stop stop-color="#FFBD73"></stop>
<stop offset="1" stop-color="#FF9D7A"></stop>
</radialGradient>
<radialGradient id="paint1_radial_14396_1043" cx="0" cy="0" r="1" gradientUnits="userSpaceOnUse" gradientTransform="translate(17.625 13.016) rotate(103.851) scale(17.4924 19.9329)">
<stop offset="0.6865" stop-color="#FF8C91" stop-opacity="0"></stop>
<stop offset="1" stop-color="#FF73AF"></stop>
</radialGradient>
<radialGradient id="paint2_radial_14396_1043" cx="0" cy="0" r="1" gradientUnits="userSpaceOnUse" gradientTransform="translate(26.4375 7.89099) rotate(137.573) scale(7.8745 12.5256)">
<stop stop-color="#FFDD8B"></stop>
<stop offset="1" stop-color="#FFDD8B" stop-opacity="0"></stop>
</radialGradient>
</defs>

<g filter="url(#filter0_f_147_1319)">
<path d="M9.44743 14.3275C8.95345 14.5745 8.35278 14.3743 8.10579 13.8803C7.8588 13.3863 8.05903 12.7856 8.553 12.5387L10.7595 11.4354H14.0002C13.9993 11.8133 13.7855 12.1585 13.4474 12.3275L9.44743 14.3275Z" fill="url(#paint0_radial_147_1319)" fill-opacity="0.6" style="mix-blend-mode:multiply"></path>
<path d="M9.44743 8.54329C8.95345 8.2963 8.35278 8.49653 8.10579 8.99051C7.8588 9.48448 8.05903 10.0852 8.553 10.3321L10.7595 11.4354H14.0002C13.9993 11.0575 13.7855 10.7123 13.4474 10.5433L9.44743 8.54329Z" fill="url(#paint1_radial_147_1319)" fill-opacity="0.6" style="mix-blend-mode:multiply"></path>
</g>
<path d="M9.44743 13.8899C8.95345 14.1369 8.35278 13.9367 8.10579 13.4427C7.8588 12.9487 8.05903 12.3481 8.553 12.1011L10.7595 10.9978H14.0002C13.9993 11.3757 13.7855 11.7209 13.4474 11.8899L9.44743 13.8899Z" fill="url(#paint2_linear_147_1319)"></path>
<path d="M9.44743 8.10579C8.95345 7.8588 8.35278 8.05903 8.10579 8.55301C7.8588 9.04698 8.05903 9.64766 8.553 9.89465L10.7595 10.9979H14.0002C13.9993 10.62 13.7855 10.2748 13.4474 10.1058L9.44743 8.10579Z" fill="url(#paint3_linear_147_1319)"></path>
<g filter="url(#filter1_f_147_1319)">
<path d="M21.959 14.3275C22.453 14.5745 23.0537 14.3743 23.3006 13.8803C23.5476 13.3863 23.3474 12.7856 22.8534 12.5387L20.6469 11.4354H17.4062C17.4071 11.8133 17.6209 12.1585 17.959 12.3275L21.959 14.3275Z" fill="url(#paint4_radial_147_1319)"></path>
<path d="M21.959 8.54329C22.453 8.2963 23.0537 8.49653 23.3006 8.99051C23.5476 9.48448 23.3474 10.0852 22.8534 10.3321L20.6469 11.4354H17.4062C17.4071 11.0575 17.6209 10.7123 17.959 10.5433L21.959 8.54329Z" fill="url(#paint5_radial_147_1319)"></path>
</g>
<path d="M22.5371 13.8899C23.0311 14.1369 23.6318 13.9367 23.8788 13.4427C24.1258 12.9487 23.9255 12.3481 23.4316 12.1011L21.2251 10.9978H17.9843C17.9852 11.3757 18.199 11.7209 18.5371 11.8899L22.5371 13.8899Z" fill="url(#paint6_linear_147_1319)"></path>
<path d="M22.5371 8.10579C23.0311 7.8588 23.6318 8.05903 23.8788 8.55301C24.1258 9.04698 23.9255 9.64766 23.4316 9.89465L21.2251 10.9979H17.9843C17.9852 10.62 18.199 10.2748 18.5371 10.1058L22.5371 8.10579Z" fill="url(#paint7_linear_147_1319)"></path>
<defs>
<filter id="filter0_f_147_1319" x="7.5" y="7.9375" width="7.00021" height="6.99579" filterUnits="userSpaceOnUse" color-interpolation-filters="sRGB">
<feFlood flood-opacity="0" result="BackgroundImageFix"></feFlood>
<feBlend mode="normal" in="SourceGraphic" in2="BackgroundImageFix" result="shape"></feBlend>
<feGaussianBlur stdDeviation="0.25" result="effect1_foregroundBlur_147_1319"></feGaussianBlur>
</filter>
<filter id="filter1_f_147_1319" x="16.9062" y="7.9375" width="7.00021" height="6.99579" filterUnits="userSpaceOnUse" color-interpolation-filters="sRGB">
<feFlood flood-opacity="0" result="BackgroundImageFix"></feFlood>
<feBlend mode="normal" in="SourceGraphic" in2="BackgroundImageFix" result="shape"></feBlend>
<feGaussianBlur stdDeviation="0.25" result="effect1_foregroundBlur_147_1319"></feGaussianBlur>
</filter>
<radialGradient id="paint0_radial_147_1319" cx="0" cy="0" r="1" gradientUnits="userSpaceOnUse" gradientTransform="translate(9.78125 8.4375) rotate(110.225) scale(7.59317 9.92428)">
<stop stop-color="#9F5E0F"></stop>
<stop offset="0.889024" stop-color="#9F5E0F" stop-opacity="0"></stop>
</radialGradient>
<radialGradient id="paint1_radial_147_1319" cx="0" cy="0" r="1" gradientUnits="userSpaceOnUse" gradientTransform="translate(9.78125 8.4375) rotate(110.225) scale(7.59317 9.92428)">
<stop stop-color="#9F5E0F"></stop>
<stop offset="0.889024" stop-color="#9F5E0F" stop-opacity="0"></stop>
</radialGradient>
<linearGradient id="paint2_linear_147_1319" x1="10.5783" y1="14.7322" x2="8" y2="9.38845" gradientUnits="userSpaceOnUse">
<stop offset="0.24955" stop-color="#482641"></stop>
<stop offset="0.406361" stop-color="#503A4A"></stop>
<stop offset="0.511203" stop-color="#482641"></stop>
</linearGradient>
<linearGradient id="paint3_linear_147_1319" x1="8.85959" y1="11.1385" x2="11.2502" y2="6.45102" gradientUnits="userSpaceOnUse">
<stop offset="0.24955" stop-color="#482641"></stop>
<stop offset="0.406361" stop-color="#503A4A"></stop>
<stop offset="0.511203" stop-color="#482641"></stop>
</linearGradient>
<radialGradient id="paint4_radial_147_1319" cx="0" cy="0" r="1" gradientUnits="userSpaceOnUse" gradientTransform="translate(26.8281 15.4375) rotate(-135.995) scale(13.3597 17.4611)">
<stop stop-color="#E9830A"></stop>
<stop offset="0.801655" stop-color="#F08B13" stop-opacity="0"></stop>
</radialGradient>
<radialGradient id="paint5_radial_147_1319" cx="0" cy="0" r="1" gradientUnits="userSpaceOnUse" gradientTransform="translate(26.8281 15.4375) rotate(-135.995) scale(13.3597 17.4611)">
<stop stop-color="#E9830A"></stop>
<stop offset="0.801655" stop-color="#F08B13" stop-opacity="0"></stop>
</radialGradient>
<linearGradient id="paint6_linear_147_1319" x1="21.4062" y1="14.7322" x2="23.9846" y2="9.38845" gradientUnits="userSpaceOnUse">
<stop offset="0.24955" stop-color="#482641"></stop>
<stop offset="0.406361" stop-color="#503A4A"></stop>
<stop offset="0.511203" stop-color="#482641"></stop>
</linearGradient>
<linearGradient id="paint7_linear_147_1319" x1="23.125" y1="11.1385" x2="20.7343" y2="6.45102" gradientUnits="userSpaceOnUse">
<stop offset="0.24955" stop-color="#482641"></stop>
<stop offset="0.406361" stop-color="#503A4A"></stop>
<stop offset="0.511203" stop-color="#482641"></stop>
</linearGradient>
</defs>
<parsererror style="display: block; white-space: pre; border: 2px solid #c77; padding: 0 1em 0 1em; margin: 1em; background-color: #fdd; color: black"><h3>This page contains the following errors:</h3><div style="font-family:monospace;font-size:12px">error on line 16 at column 19: Specification mandates value for attribute async
</div><h3>Below is a rendering of the page up to the first error.</h3></parsererror>
  <head>
    <meta charset="UTF-8"></meta>
    <meta name="author" content="Diu"></meta>
    <meta property="og:title" content="Fluent Emoji Maker"></meta>
    <meta property="og:image" content="https://emoji.ddiu.io/banner.png"></meta>
    <meta property="description" content="Generate your own Fluent Emojis!"></meta>
    <meta property="og:description" content="Generate your own Fluent Emojis!"></meta>
    <meta property="og:url" content="https://emoji.ddiu.io/"></meta>
    <meta name="twitter:card" content="summary_large_image"></meta>
    <meta name="twitter:creator" content="@ddiu8081"></meta>
    <link rel="icon" type="image/svg+xml" href="/favicon.svg"></link>
    <meta name="viewport" content="width=device-width, initial-scale=1.0"></meta>
    <title>Fluent Emoji Maker</title></head>
<path d="M16 25C7 25 7 16 7 16H25C25 16 25 25 16 25Z" fill="url(#paint0_radial_159_324)"></path>
<path d="M8 16.5V16H24V16.5C24 17.0523 23.5523 17.5 23 17.5H9C8.44772 17.5 8 17.0523 8 16.5Z" fill="url(#paint1_linear_159_324)"></path>
<defs>
<radialGradient id="paint0_radial_159_324" cx="0" cy="0" r="1" gradientUnits="userSpaceOnUse" gradientTransform="translate(16 27) rotate(-90) scale(11 22)">
<stop stop-color="#F70A8D"></stop>
<stop offset="1" stop-color="#89029C"></stop>
</radialGradient>
<linearGradient id="paint1_linear_159_324" x1="16" y1="16" x2="16" y2="17.5" gradientUnits="userSpaceOnUse">
<stop stop-color="#ECCDFF"></stop>
<stop offset="1" stop-color="white"></stop>
</linearGradient>
</defs>
<parsererror style="display: block; white-space: pre; border: 2px solid #c77; padding: 0 1em 0 1em; margin: 1em; background-color: #fdd; color: black"><h3>This page contains the following errors:</h3><div style="font-family:monospace;font-size:12px">error on line 16 at column 19: Specification mandates value for attribute async
</div><h3>Below is a rendering of the page up to the first error.</h3></parsererror>
  <head>
    <meta charset="UTF-8"></meta>
    <meta name="author" content="Diu"></meta>
    <meta property="og:title" content="Fluent Emoji Maker"></meta>
    <meta property="og:image" content="https://emoji.ddiu.io/banner.png"></meta>
    <meta property="description" content="Generate your own Fluent Emojis!"></meta>
    <meta property="og:description" content="Generate your own Fluent Emojis!"></meta>
    <meta property="og:url" content="https://emoji.ddiu.io/"></meta>
    <meta name="twitter:card" content="summary_large_image"></meta>
    <meta name="twitter:creator" content="@ddiu8081"></meta>
    <link rel="icon" type="image/svg+xml" href="/favicon.svg"></link>
    <meta name="viewport" content="width=device-width, initial-scale=1.0"></meta>
    <title>Fluent Emoji Maker</title></head></svg>